<?xml version="1.0" encoding="UTF-8"?>
<svg width="512px" height="512px" viewBox="0 0 512 512" version="1.1" xmlns="http://www.w3.org/2000/svg" xmlns:xlink="http://www.w3.org/1999/xlink">
    <!-- Generator: Sketch 62 (91390) - https://sketch.com -->
    <title>chapi</title>
    <desc>Created with Sketch.</desc>
    <g id="Page-1" stroke="none" stroke-width="1" fill="none" fill-rule="evenodd">
        <g id="chapi">
            <rect id="Rectangle" fill="#000000" x="0" y="0" width="512" height="512"></rect>
            <path d="M401,0 L401,410 L247.734,410 L247.734192,449.100534 C247.734192,460.394741 252.142966,466.238836 261.473017,466.37638 L261.812392,466.378866 C266.593668,466.378866 272.171823,465.315584 278.546857,463.18902 L278.546857,463.18902 L282,480.733173 C272.703075,483.391378 263.937404,484.986301 255.968611,484.986301 C236.312256,484.986301 226.749705,473.290199 226.749705,450.429637 L226.749705,450.429637 L226.749,410 L247.734,410 L247.734192,361.64559 L276.687472,361.64559 L276.687472,343.835616 L121.561644,343.835616 L121.561644,361.64559 L145.733648,361.64559 L145.733,410 L74.492,410 L74.4926221,449.375631 C74.4926221,454.263966 75.2401337,457.90488 77.2183966,460.056446 L77.4074792,460.253785 C79.2623882,462.376352 82.7072193,463.702956 87.4769854,463.702956 L87.4769854,463.702956 L104.966128,463.702956 L104.966128,481.479452 L84.2971413,481.479452 C73.1676871,481.479452 64.9530899,478.560923 60.1833238,472.723864 C55.6785447,467.417448 53.5586486,459.723143 53.5586486,449.375631 L53.5586486,449.375631 L53.558,410 L74.492,410 L74.4926221,362.085076 L108.410959,362.085076 L108.410959,344.30858 L74.4926221,344.30858 L74.4926221,300 L53.5586486,308.755588 L53.5586486,344.30858 L26,344.30858 L26,362.085076 L53.5586486,362.085076 L53.558,410 L0,410 L0,0 L401,0 Z M226.749705,361.64559 L226.749,410 L166.983,410 L166.983761,481.264814 L145.733648,481.264814 L145.733,410 L166.983,410 L166.983761,361.64559 L226.749705,361.64559 Z" id="Combined-Shape" fill="#99B2FB"></path>
        </g>
    </g>
</svg>